<?xml version="1.0" encoding="utf-8"?>
<!-- Generator: Adobe Illustrator 26.0.3, SVG Export Plug-In . SVG Version: 6.00 Build 0)  -->
<svg version="1.0" id="Capa_1" xmlns="http://www.w3.org/2000/svg" xmlns:xlink="http://www.w3.org/1999/xlink" x="0px" y="0px"
	 viewBox="0 0 768.8 200.6" style="enable-background:new 0 0 768.8 200.6;" xml:space="preserve">
<style type="text/css">
	.st0{fill:#5AB037;}
	.st1{fill:#FFFFFF;}
	.st2{fill:#1D1D1B;}
</style>
<g>
	<g>
		<g>
			<circle class="st0" cx="98.2" cy="93.4" r="87.5"/>
			<circle class="st1" cx="98.2" cy="93.4" r="79.1"/>
			<circle class="st0" cx="98.2" cy="93.4" r="74.4"/>
		</g>
		<g>
			<path class="st1" d="M129.5,75.7h-1.7c-0.3-19.9-11.9-31.4-11.9-31.4H98.3c-9.8,0-17.8,8-17.8,17.8v13.6H49.1v17.6
				c0,9.8,8,17.8,17.8,17.8H72c0.8,3.3,4.2,9.3,8.3,11.2c0.1,0,0.1,0,0.2,0v20.2h17.6c9.8,0,17.8-8,17.8-17.8v-13.6h31.4V93.5
				C147.3,83.6,139.3,75.7,129.5,75.7z"/>
			<g>
				<path class="st0" d="M80.5,125.4c6.6-17.2,20.1-21,27.8-25.7c28.2-17,7.9-58.1,7.9-58.1s-0.5,21.1-22.3,33.1
					c-5.2,2.9-8.5,5.1-11.9,10C68,105,80.5,125.4,80.5,125.4z"/>
				<path class="st1" d="M117.8,61.6c0.8,2.5,0.9,5.2,0.5,7.9c-0.4,2.7-1.3,5.3-2.7,7.7c-2.7,4.8-7.1,8.6-11.9,11.1
					c-0.6,0.4-1.1,0.6-1.7,0.9l-1.6,0.9c-1.1,0.6-2.1,1.2-3.2,1.8c-2.1,1.3-4.2,2.6-6.1,4.1c-2,1.5-3.9,3-5.6,4.8
					c-1.7,1.8-3.4,3.6-4.8,5.8c0.1-1.3,0.6-2.6,1-3.8c0.2-0.6,0.5-1.2,0.8-1.8c0.3-0.6,0.6-1.2,1-1.7c1.4-2.3,3.1-4.3,5-6.2
					c1.9-1.9,4-3.6,6.1-5.1c1.1-0.7,2.2-1.5,3.4-2.1l1.7-1c0.6-0.3,1.2-0.6,1.7-0.9c4.2-2.3,8-5.1,10.9-8.9c1.5-1.8,2.6-4,3.6-6.2
					c0.5-1.1,0.8-2.3,1.2-3.5C117.4,64.2,117.6,62.9,117.8,61.6z"/>
			</g>
		</g>
	</g>
	<g>
		<path class="st2" d="M236.9,106.2c2.7,11.9,11.2,17.1,24.9,17.1c13.7,0,19.5-5.4,19.5-14c0-9.6-5.7-13.8-25.9-18.5
			c-32.2-7.6-40.1-19.3-40.1-35.2c0-20.6,15.4-34.6,43.4-34.6c31.4,0,43.9,16.9,45.6,34.2h-25.8c-1.2-7.3-5.3-15.2-20.5-15.2
			c-10.4,0-16.6,4.3-16.6,12.7c0,8.2,5,11.6,24.1,16c34.4,8.1,41.9,20.9,41.9,37.6c0,21.6-16.3,36.4-47.6,36.4
			c-30,0-45.8-14.8-48.7-36.3H236.9z"/>
		<path class="st2" d="M348.9,22.6V93c0,22.7,11.7,29.4,24.4,29.4c14.6,0,23.8-8,23.8-29.4V22.6h25.6v69.2
			c0,40.4-23.7,50.7-49.8,50.7c-26.7,0-49.7-10.8-49.7-50.3V22.6H348.9z"/>
		<path class="st2" d="M444.3,22.6h25.6v97.3h63.6l-7.7,21h-81.6V22.6z"/>
		<path class="st2" d="M572.8,113.5l-9.2,27.3h-25.1l40.2-118.3h32.1l41.9,118.3h-26.9l-9.7-27.3H572.8z M610.5,92.5
			c-8.4-25-13.8-40.9-16.6-51.5h-0.2c-2.9,11.7-8.8,30.2-15.6,51.5H610.5z"/>
		<path class="st2" d="M667.7,22.6h51.7c28.6,0,39.4,14.9,39.4,30.3c0,13.3-7.1,22-15.1,25.6c8,3,18.4,11.4,18.4,27
			c0,20.2-15.9,35.4-41.1,35.4h-53.4V22.6z M716.5,69.2c12.1,0,17.2-5.5,17.2-13.8c0-8.7-6.6-13.1-16.4-13.1h-24.4v26.9H716.5z
			 M692.8,121.1h23.1c13.8,0,20.1-5.8,20.1-16.5c0-9.5-6.2-15.6-20.2-15.6h-22.9V121.1z"/>
	</g>
	<g>
		<path class="st2" d="M213.4,171h6.5c3.3,0,5.6,1.9,5.6,5c0,3.3-2.4,5.1-5.8,5.1h-4.1v7.1h-2.3V171z M215.7,179.2h4
			c2.4,0,3.5-1.1,3.5-3.1c0-2.1-1.4-3.1-3.4-3.1h-4.1V179.2z"/>
		<path class="st2" d="M228,179.1c0-1.7,0-2.7,0-3.4h2.1c0,0.4,0.1,1.3,0.1,2.6c0.7-1.7,2.1-2.8,4.2-2.8v2.2
			c-2.6,0.1-4.2,1.4-4.2,4.6v6.1H228V179.1z"/>
		<path class="st2" d="M247.2,181.9c0,3.6-2.1,6.6-5.9,6.6c-3.6,0-5.8-2.8-5.8-6.5c0-3.7,2.1-6.6,5.9-6.6
			C245,175.4,247.2,178,247.2,181.9z M237.8,181.9c0,2.7,1.4,4.7,3.6,4.7c2.3,0,3.6-1.9,3.6-4.7c0-2.8-1.3-4.8-3.6-4.8
			C239,177.2,237.8,179.1,237.8,181.9z"/>
		<path class="st2" d="M250.8,175.7c1.7,5.1,2.9,8.9,3.3,10.5h0c0.3-1.4,1.6-5.1,3.5-10.5h2.2l-4.6,12.5h-2.4l-4.4-12.5H250.8z"/>
		<path class="st2" d="M263.2,182.3c0,2.5,1.3,4.4,3.4,4.4c2,0,2.6-1,3-1.9h2.2c-0.5,1.6-1.8,3.7-5.3,3.7c-3.9,0-5.5-3.2-5.5-6.4
			c0-3.7,1.9-6.7,5.7-6.7c4,0,5.4,3.2,5.4,5.9c0,0.4,0,0.7,0,1H263.2z M269.9,180.8c0-2.1-1.1-3.7-3.2-3.7c-2.2,0-3.2,1.5-3.4,3.7
			H269.9z"/>
		<path class="st2" d="M276.3,182.3c0,2.5,1.3,4.4,3.4,4.4c2,0,2.6-1,3-1.9h2.2c-0.5,1.6-1.8,3.7-5.3,3.7c-3.9,0-5.5-3.2-5.5-6.4
			c0-3.7,1.9-6.7,5.7-6.7c4,0,5.4,3.2,5.4,5.9c0,0.4,0,0.7,0,1H276.3z M282.9,180.8c0-2.1-1.1-3.7-3.2-3.7c-2.2,0-3.2,1.5-3.4,3.7
			H282.9z"/>
		<path class="st2" d="M298.4,170.1v14.6c0,1.2,0,2.3,0,3.5h-2.1c-0.1-0.3-0.1-1.3-0.1-1.8c-0.6,1.3-1.9,2.1-3.9,2.1
			c-3.2,0-5.2-2.6-5.2-6.4c0-3.9,2.1-6.7,5.6-6.7c2.2,0,3.2,0.9,3.5,1.6v-6.9H298.4z M289.4,182c0,3,1.4,4.7,3.4,4.7
			c2.9,0,3.6-2.2,3.6-4.9c0-2.8-0.6-4.5-3.4-4.5C290.7,177.2,289.4,178.9,289.4,182z"/>
		<path class="st2" d="M312.8,181.9c0,3.6-2.1,6.6-5.9,6.6c-3.6,0-5.8-2.8-5.8-6.5c0-3.7,2.1-6.6,5.9-6.6
			C310.6,175.4,312.8,178,312.8,181.9z M303.4,181.9c0,2.7,1.4,4.7,3.6,4.7c2.3,0,3.6-1.9,3.6-4.7c0-2.8-1.3-4.8-3.6-4.8
			C304.7,177.2,303.4,179.1,303.4,181.9z"/>
		<path class="st2" d="M315.7,179.1c0-1.7,0-2.7,0-3.4h2.1c0,0.4,0.1,1.3,0.1,2.6c0.7-1.7,2.1-2.8,4.2-2.8v2.2
			c-2.6,0.1-4.2,1.4-4.2,4.6v6.1h-2.2V179.1z"/>
		<path class="st2" d="M341,170.1v14.6c0,1.2,0,2.3,0,3.5h-2.1c-0.1-0.3-0.1-1.3-0.1-1.8c-0.6,1.3-1.9,2.1-3.9,2.1
			c-3.2,0-5.2-2.6-5.2-6.4c0-3.9,2.1-6.7,5.6-6.7c2.2,0,3.2,0.9,3.5,1.6v-6.9H341z M331.9,182c0,3,1.4,4.7,3.4,4.7
			c2.9,0,3.6-2.2,3.6-4.9c0-2.8-0.6-4.5-3.4-4.5C333.3,177.2,331.9,178.9,331.9,182z"/>
		<path class="st2" d="M346,182.3c0,2.5,1.3,4.4,3.4,4.4c2,0,2.6-1,3-1.9h2.2c-0.5,1.6-1.8,3.7-5.3,3.7c-3.9,0-5.5-3.2-5.5-6.4
			c0-3.7,1.9-6.7,5.7-6.7c4,0,5.4,3.2,5.4,5.9c0,0.4,0,0.7,0,1H346z M352.6,180.8c0-2.1-1.1-3.7-3.2-3.7c-2.2,0-3.2,1.5-3.4,3.7
			H352.6z"/>
		<path class="st2" d="M366.4,171v17.2h-2.3V171H366.4z"/>
		<path class="st2" d="M370.2,178.8c0-1.1,0-2.2,0-3.2h2.1c0.1,0.4,0.1,1.7,0.1,2.1c0.5-1.1,1.5-2.4,3.9-2.4c2.3,0,4.2,1.4,4.2,4.8
			v8h-2.2v-7.8c0-1.9-0.7-3.2-2.6-3.2c-2.4,0-3.3,1.8-3.3,4.3v6.6h-2.2V178.8z"/>
		<path class="st2" d="M385.1,184.6c0.4,1.4,1.4,2.2,3.1,2.2c1.8,0,2.6-0.8,2.6-1.9c0-1.2-0.6-1.7-3-2.3c-3.6-0.9-4.3-2-4.3-3.7
			c0-1.8,1.3-3.5,4.5-3.5c3.2,0,4.5,1.9,4.7,3.6h-2.1c-0.2-0.8-0.8-1.9-2.7-1.9c-1.8,0-2.3,0.8-2.3,1.7c0,0.9,0.5,1.4,2.8,1.9
			c3.8,0.9,4.6,2.2,4.6,4c0,2.2-1.7,3.8-4.9,3.8c-3.2,0-4.8-1.6-5.1-3.9H385.1z"/>
		<path class="st2" d="M405.5,184.5c0,1.2,0,2.9,0,3.6h-2.1c0-0.3-0.1-1.1-0.1-1.9c-0.6,1.4-1.8,2.2-3.8,2.2c-2.1,0-4.1-1-4.1-4.6
			v-8.2h2.1v7.8c0,1.6,0.5,3.2,2.6,3.2c2.3,0,3.2-1.3,3.2-4.4v-6.5h2.2V184.5z"/>
		<path class="st2" d="M409.2,178.9c0-1.1,0-2.2,0-3.2h2.1c0,0.4,0.1,1.3,0.1,1.9c0.6-1.1,1.7-2.2,3.6-2.2c1.8,0,3,0.9,3.5,2.2
			c0.7-1.2,1.8-2.2,4-2.2c2,0,3.9,1.2,3.9,4.6v8.2h-2.1v-8c0-1.5-0.5-3-2.5-3c-2,0-2.9,1.5-2.9,3.8v7.2h-2.1v-7.9c0-1.6-0.5-3-2.4-3
			c-2,0-3,1.6-3,4v6.9h-2.1V178.9z"/>
		<path class="st2" d="M440.8,181.9c0,3.6-2.1,6.6-5.9,6.6c-3.6,0-5.8-2.8-5.8-6.5c0-3.7,2.1-6.6,5.9-6.6
			C438.6,175.4,440.8,178,440.8,181.9z M431.4,181.9c0,2.7,1.4,4.7,3.6,4.7c2.3,0,3.6-1.9,3.6-4.7c0-2.8-1.3-4.8-3.6-4.8
			C432.6,177.2,431.4,179.1,431.4,181.9z"/>
		<path class="st2" d="M444.9,184.6c0.4,1.4,1.4,2.2,3.1,2.2c1.8,0,2.6-0.8,2.6-1.9c0-1.2-0.6-1.7-3-2.3c-3.6-0.9-4.3-2-4.3-3.7
			c0-1.8,1.3-3.5,4.5-3.5c3.2,0,4.5,1.9,4.7,3.6h-2.1c-0.2-0.8-0.8-1.9-2.7-1.9c-1.8,0-2.3,0.8-2.3,1.7c0,0.9,0.5,1.4,2.8,1.9
			c3.8,0.9,4.6,2.2,4.6,4c0,2.2-1.7,3.8-4.9,3.8c-3.2,0-4.8-1.6-5.1-3.9H444.9z"/>
		<path class="st2" d="M454,191c1.3-2.8,1.7-4.9,1.8-6.5h2.2c-0.2,2.2-1,4.8-2.2,6.5H454z"/>
		<path class="st2" d="M478.4,180.1h-8.5v6.1h9.4l-0.3,1.9h-11.3V171h11.2v1.9h-8.9v5.2h8.5V180.1z"/>
		<path class="st2" d="M490.1,186.4c-0.6,1.3-1.8,2.1-4,2.1c-2.8,0-5.2-2.3-5.2-6.4c0-4.2,2.5-6.7,5.5-6.7c2.3,0,3.3,1.1,3.6,1.9
			c0-0.5,0-1.1,0.1-1.6h2c0,1.3,0,2.3,0,3.5v14h-2.1V186.4z M483.2,182c0,2.5,1.1,4.7,3.5,4.7c2.7,0,3.5-1.9,3.5-4.8
			c0-2.9-0.7-4.6-3.4-4.6C484.4,177.2,483.2,179.2,483.2,182z"/>
		<path class="st2" d="M506,184.5c0,1.2,0,2.9,0,3.6h-2.1c0-0.3-0.1-1.1-0.1-1.9c-0.6,1.4-1.8,2.2-3.8,2.2c-2.1,0-4.1-1-4.1-4.6
			v-8.2h2.1v7.8c0,1.6,0.5,3.2,2.6,3.2c2.3,0,3.2-1.3,3.2-4.4v-6.5h2.2V184.5z"/>
		<path class="st2" d="M509.7,170.1h2.2v2.7h-2.2V170.1z M509.7,175.7h2.2v12.5h-2.2V175.7z"/>
		<path class="st2" d="M517.7,186.6v6.5h-2.2v-14.4c0-1,0-2.1,0-3.1h2.1c0.1,0.4,0.1,1.2,0.1,2c0.7-1.3,1.9-2.3,4.1-2.3
			c2.9,0,5,2.4,5,6.2c0,4.5-2.4,6.9-5.4,6.9C519.3,188.5,518.2,187.6,517.7,186.6z M524.5,181.7c0-2.7-1.2-4.5-3.3-4.5
			c-2.6,0-3.6,1.6-3.6,4.7c0,3,0.8,4.7,3.5,4.7C523.3,186.6,524.5,184.8,524.5,181.7z"/>
		<path class="st2" d="M540.5,181.9c0,3.6-2.1,6.6-5.9,6.6c-3.6,0-5.8-2.8-5.8-6.5c0-3.7,2.1-6.6,5.9-6.6
			C538.2,175.4,540.5,178,540.5,181.9z M531.1,181.9c0,2.7,1.4,4.7,3.6,4.7c2.3,0,3.6-1.9,3.6-4.7c0-2.8-1.3-4.8-3.6-4.8
			C532.3,177.2,531.1,179.1,531.1,181.9z"/>
		<path class="st2" d="M544.5,184.6c0.4,1.4,1.4,2.2,3.1,2.2c1.8,0,2.6-0.8,2.6-1.9c0-1.2-0.6-1.7-3-2.3c-3.6-0.9-4.3-2-4.3-3.7
			c0-1.8,1.3-3.5,4.5-3.5c3.2,0,4.5,1.9,4.7,3.6H550c-0.2-0.8-0.8-1.9-2.7-1.9c-1.8,0-2.3,0.8-2.3,1.7c0,0.9,0.5,1.4,2.8,1.9
			c3.8,0.9,4.6,2.2,4.6,4c0,2.2-1.7,3.8-4.9,3.8c-3.2,0-4.8-1.6-5.1-3.9H544.5z"/>
		<path class="st2" d="M576.5,180.8c0-3.2,0-6.4,0.1-8.2h-0.1c-0.7,2.8-3.5,10.1-5.5,15.5h-2c-1.5-4.4-4.4-12.7-5.1-15.6h-0.1
			c0.1,2,0.2,5.8,0.2,8.7v6.8h-2.1V171h3.4c1.9,5.3,4.3,12.2,4.9,14.4h0c0.4-1.6,3.2-9.2,5.2-14.4h3.3v17.2h-2.2V180.8z"/>
		<path class="st2" d="M584,182.6c0.1,2.9,1.9,4.1,4.1,4.1c1.6,0,2.5-0.3,3.3-0.6l0.4,1.6c-0.8,0.3-2.1,0.8-4,0.8
			c-3.7,0-5.9-2.4-5.9-6c0-3.6,2.1-6.4,5.6-6.4c3.9,0,4.9,3.4,4.9,5.6c0,0.4,0,0.8-0.1,1H584z M590.3,181c0-1.4-0.6-3.5-3-3.5
			c-2.2,0-3.2,2-3.3,3.5H590.3z M590.8,171.1l-3,3.5h-1.5l2.2-3.5H590.8z"/>
		<path class="st2" d="M605.6,170.1v14.6c0,1.2,0,2.3,0,3.5h-2.1c-0.1-0.3-0.1-1.3-0.1-1.8c-0.6,1.3-1.9,2.1-3.9,2.1
			c-3.2,0-5.2-2.6-5.2-6.4c0-3.9,2.1-6.7,5.6-6.7c2.2,0,3.2,0.9,3.5,1.6v-6.9H605.6z M596.5,182c0,3,1.4,4.7,3.4,4.7
			c2.9,0,3.6-2.2,3.6-4.9c0-2.8-0.6-4.5-3.4-4.5C597.9,177.2,596.5,178.9,596.5,182z"/>
		<path class="st2" d="M609.2,170.1h2.2v2.7h-2.2V170.1z M609.2,175.7h2.2v12.5h-2.2V175.7z"/>
		<path class="st2" d="M625,184.3c-0.5,2.2-2,4.1-5.2,4.1c-3.4,0-5.6-2.5-5.6-6.5c0-3.5,2-6.6,5.7-6.6c3.6,0,4.9,2.6,5,4.2h-2.1
			c-0.3-1.3-1.1-2.4-2.9-2.4c-2.2,0-3.5,1.9-3.5,4.7c0,2.8,1.2,4.8,3.4,4.8c1.6,0,2.5-0.8,3-2.3H625z"/>
		<path class="st2" d="M638.4,181.9c0,3.6-2.1,6.6-5.9,6.6c-3.6,0-5.8-2.8-5.8-6.5c0-3.7,2.1-6.6,5.9-6.6
			C636.2,175.4,638.4,178,638.4,181.9z M629,181.9c0,2.7,1.4,4.7,3.6,4.7c2.3,0,3.6-1.9,3.6-4.7c0-2.8-1.3-4.8-3.6-4.8
			C630.2,177.2,629,179.1,629,181.9z"/>
		<path class="st2" d="M642.5,184.6c0.4,1.4,1.4,2.2,3.1,2.2c1.8,0,2.6-0.8,2.6-1.9c0-1.2-0.6-1.7-3-2.3c-3.6-0.9-4.3-2-4.3-3.7
			c0-1.8,1.3-3.5,4.5-3.5c3.2,0,4.5,1.9,4.7,3.6H648c-0.2-0.8-0.8-1.9-2.7-1.9c-1.8,0-2.3,0.8-2.3,1.7c0,0.9,0.5,1.4,2.8,1.9
			c3.8,0.9,4.6,2.2,4.6,4c0,2.2-1.7,3.8-4.9,3.8c-3.2,0-4.8-1.6-5.1-3.9H642.5z"/>
		<path class="st2" d="M660.1,175.7c2,6,3.1,9.3,3.5,10.6h0c0.4-1.4,1.3-4.3,3.3-10.6h2.2l-4.5,13.1c-1.3,3.7-2.2,4.6-4.8,4.6
			c-0.4,0-0.9,0-1.3-0.1v-1.9c0.3,0,0.7,0.1,1,0.1c1.6,0,2.2-0.7,2.9-2.8l-4.7-13H660.1z"/>
		<path class="st2" d="M680.1,180.6v7.6h-2.3V171h6.7c3.5,0,5.4,1.9,5.4,4.6c0,2.2-1.3,3.6-2.9,4c1.4,0.4,2.6,1.4,2.6,4.4v0.7
			c0,1.2-0.1,2.7,0.2,3.4h-2.2c-0.3-0.7-0.3-2.1-0.3-3.7v-0.4c0-2.4-0.7-3.5-3.8-3.5H680.1z M680.1,178.7h3.7c2.6,0,3.8-1,3.8-2.9
			c0-1.8-1.2-2.9-3.5-2.9h-4V178.7z"/>
		<path class="st2" d="M694.6,182.3c0,2.5,1.3,4.4,3.4,4.4c2,0,2.6-1,3-1.9h2.2c-0.5,1.6-1.8,3.7-5.3,3.7c-3.9,0-5.5-3.2-5.5-6.4
			c0-3.7,1.9-6.7,5.7-6.7c4,0,5.4,3.2,5.4,5.9c0,0.4,0,0.7,0,1H694.6z M701.3,180.8c0-2.1-1.1-3.7-3.2-3.7c-2.2,0-3.2,1.5-3.4,3.7
			H701.3z"/>
		<path class="st2" d="M707.5,184.6c0.4,1.4,1.4,2.2,3.1,2.2c1.8,0,2.6-0.8,2.6-1.9c0-1.2-0.6-1.7-3-2.3c-3.6-0.9-4.3-2-4.3-3.7
			c0-1.8,1.3-3.5,4.5-3.5c3.2,0,4.5,1.9,4.7,3.6H713c-0.2-0.8-0.8-1.9-2.7-1.9c-1.8,0-2.3,0.8-2.3,1.7c0,0.9,0.5,1.4,2.8,1.9
			c3.8,0.9,4.6,2.2,4.6,4c0,2.2-1.7,3.8-4.9,3.8c-3.2,0-4.8-1.6-5.1-3.9H707.5z"/>
		<path class="st2" d="M728,184.3c-0.5,2.2-2,4.1-5.2,4.1c-3.4,0-5.6-2.5-5.6-6.5c0-3.5,2-6.6,5.7-6.6c3.6,0,4.9,2.6,5,4.2h-2.1
			c-0.3-1.3-1.1-2.4-2.9-2.4c-2.2,0-3.5,1.9-3.5,4.7c0,2.8,1.2,4.8,3.4,4.8c1.6,0,2.5-0.8,3-2.3H728z"/>
		<path class="st2" d="M740,185.4c0,1.1,0.1,2.4,0.2,2.7h-2.1c-0.1-0.3-0.2-0.9-0.2-1.6c-0.4,0.8-1.4,1.9-3.9,1.9
			c-2.9,0-4.2-1.9-4.2-3.8c0-2.8,2.2-4.1,5.9-4.1c0.9,0,1.7,0,2.1,0v-1.1c0-1.1-0.4-2.5-2.7-2.5c-2.1,0-2.4,1-2.7,2h-2.1
			c0.2-1.7,1.2-3.7,4.8-3.7c3.1,0,4.7,1.3,4.7,4.1V185.4z M737.9,182.1c-0.4,0-1.4,0-2,0c-2.5,0-3.8,0.7-3.8,2.5
			c0,1.3,0.9,2.2,2.4,2.2c3,0,3.4-2,3.4-4.3V182.1z"/>
		<path class="st2" d="M742,175.7h2.2V172h2.2v3.7h2.8v1.8h-2.8v7.3c0,1.2,0.3,1.8,1.4,1.8c0.3,0,0.7,0,1.1-0.1v1.6
			c-0.5,0.2-1.3,0.2-1.9,0.2c-1.9,0-2.8-1-2.8-3.1v-7.8H742V175.7z"/>
		<path class="st2" d="M752.5,182.3c0,2.5,1.3,4.4,3.4,4.4c2,0,2.6-1,3-1.9h2.2c-0.5,1.6-1.8,3.7-5.3,3.7c-3.9,0-5.5-3.2-5.5-6.4
			c0-3.7,1.9-6.7,5.7-6.7c4,0,5.4,3.2,5.4,5.9c0,0.4,0,0.7,0,1H752.5z M759.2,180.8c0-2.1-1.1-3.7-3.2-3.7c-2.2,0-3.2,1.5-3.4,3.7
			H759.2z"/>
	</g>
</g>
</svg>
